<mxfile host="app.diagrams.net" modified="2021-02-20T01:54:09.062Z" agent="5.0 (Windows NT 10.0; Win64; x64) AppleWebKit/537.36 (KHTML, like Gecko) Chrome/88.0.4324.96 Safari/537.36 Edg/88.0.705.56" etag="fppEPgmi5yZZD_AeJe2L" version="14.4.2" type="github">
  <diagram id="BI-woEdE1NmwN9FP8URS" name="Page-1">
    <mxGraphModel dx="881" dy="647" grid="1" gridSize="10" guides="1" tooltips="1" connect="1" arrows="1" fold="1" page="1" pageScale="1" pageWidth="827" pageHeight="1169" math="0" shadow="0">
      <root>
        <mxCell id="0" />
        <mxCell id="1" parent="0" />
      </root>
    </mxGraphModel>
  </diagram>
</mxfile>
